<svg version="1.1"
     baseProfile="full"
     width="300" height="200"
     xmlns="http://www.w3.org/2000/svg">
  <rect x="0" y="0" width="300" height="200" fill="white" />

  <g id="Teensy" transform="translate(30 42)">
    <rect x="0" y="0" width="66" height="116" fill="green" />
    <text x="32" y="81" font-size="10" text-anchor="middle" fill="white">Teensy 4.0</text>

    <circle cx="6" cy="110" r="3" fill="yellow" />
    <circle cx="6" cy="102" r="3" fill="yellow" />
    <circle cx="6" cy="94" r="3" fill="yellow" /><text x="17" y="98" font-size="9" text-anchor="middle" fill="white">3V</text>
    <circle cx="6" cy="86" r="3" fill="yellow" />
    <circle cx="6" cy="78" r="3" fill="yellow" />
    <circle cx="6" cy="70" r="3" fill="yellow" />
    <circle cx="6" cy="62" r="3" fill="yellow" />
    <circle cx="6" cy="54" r="3" fill="yellow" />
    <circle cx="6" cy="46" r="3" fill="yellow" />
    <circle cx="6" cy="38" r="3" fill="yellow" />
    <circle cx="6" cy="30" r="3" fill="yellow" />
    <circle cx="6" cy="22" r="3" fill="yellow" />
    <circle cx="6" cy="14" r="3" fill="yellow" />
    <circle cx="6" cy="6" r="3" fill="yellow" /><text x="16" y="9" font-size="9" text-anchor="middle" fill="white">13</text>

    <circle cx="60" cy="110" r="3" fill="yellow" /><text x="51" y="114" font-size="9" text-anchor="middle" fill="white">G</text>
    <circle cx="60" cy="102" r="3" fill="yellow" />
    <circle cx="60" cy="94" r="3" fill="yellow" />
    <circle cx="60" cy="86" r="3" fill="yellow" />
    <circle cx="60" cy="78" r="3" fill="yellow" />
    <circle cx="60" cy="70" r="3" fill="yellow" />
    <circle cx="60" cy="62" r="3" fill="yellow" /><text x="52" y="65" font-size="9" text-anchor="middle" fill="white">5</text>
    <circle cx="60" cy="54" r="3" fill="yellow" /><text x="52" y="57" font-size="9" text-anchor="middle" fill="white">6</text>
    <circle cx="60" cy="46" r="3" fill="yellow" /><text x="52" y="49" font-size="9" text-anchor="middle" fill="white">7</text>
    <circle cx="60" cy="38" r="3" fill="yellow" /><text x="52" y="41" font-size="9" text-anchor="middle" fill="white">8</text>
    <circle cx="60" cy="30" r="3" fill="yellow" /><text x="52" y="33" font-size="9" text-anchor="middle" fill="white">9</text>
    <circle cx="60" cy="22" r="3" fill="yellow" />
    <circle cx="60" cy="14" r="3" fill="yellow" /><text x="50" y="17" font-size="9" text-anchor="middle" fill="white">11</text>
    <circle cx="60" cy="6" r="3" fill="yellow" />
  </g>

  <g id="LCD" transform="translate(160 34)">
    <rect x="0" y="0" width="120" height="70" fill="darkblue" />
    <text x="232" y="97" font-size="9" text-anchor="middle" fill="white">2inch LCD Module</text>
    <circle cx="6" cy="6" r="3" fill="yellow" /><text x="22" y="9" font-size="9" text-anchor="middle" fill="white">VCC</text>
    <circle cx="6" cy="14" r="3" fill="yellow" /><text x="22" y="17" font-size="9" text-anchor="middle" fill="white">GRD</text>
    <circle cx="6" cy="22" r="3" fill="yellow" /><text x="20" y="25" font-size="9" text-anchor="middle" fill="white">DIN</text>
    <circle cx="6" cy="30" r="3" fill="yellow" /><text x="21" y="33" font-size="9" text-anchor="middle" fill="white">CLK</text>
    <circle cx="6" cy="38" r="3" fill="yellow" /><text x="18" y="42" font-size="9" text-anchor="middle" fill="white">CS</text>
    <circle cx="6" cy="46" r="3" fill="yellow" /><text x="19" y="49" font-size="9" text-anchor="middle" fill="white">DC</text>
    <circle cx="6" cy="54" r="3" fill="yellow" /><text x="21" y="57" font-size="9" text-anchor="middle" fill="white">RST</text>
    <circle cx="6" cy="62" r="3" fill="yellow" /><text x="18" y="65" font-size="9" text-anchor="middle" fill="white">BL</text>
  </g>

  <line id="Wire6toBL" x1="90" y1="96" x2="166" y2="96" stroke="orange" />
  <line id="Wire7toRST" x1="90" y1="88" x2="166" y2="88" stroke="orange" />
  <line id="Wire8toDC" x1="90" y1="80" x2="166" y2="80" stroke="orange" />
  <line id="Wire9toCS" x1="90" y1="72" x2="166" y2="72" stroke="orange" />
  <line id="Wire11toDIN" x1="90" y1="56" x2="166" y2="56" stroke="orange" />
  <path id="Wire13toCLK" d="M 36 48 L 36 35 L 129 35 L 129 64 L 166 64" stroke="orange" fill="none"/>
  <path id="WireGtoGRD" d="M 90 152 L 90 167 L 145 167 L 145 48 L 166 48" stroke="black" fill="none"/>
  <path id="WireGtoGRD" d="M 20 136 L 20 20 L 144 20 L 144 40 L 166 40" stroke="red" fill="none"/>

  <g id="Switch" transform="translate(103 100)">
    <rect x="0" y="0" width="20" height="20" fill="gray" />
    <circle cx="10" cy="10" r="6" fill="black" />
    <rect x="-3" y="1" width="3" height="5" fill="lightgray" />
    <rect x="-3" y="14" width="3" height="5" fill="lightgray" />
    <rect x="20" y="1" width="3" height="5" fill="lightgray" />
    <rect x="20" y="14" width="3" height="5" fill="lightgray" />
  </g>

  <line id="Wire5toSwitch" x1="90" y1="104" x2="100" y2="104" stroke="orange" />
  <path id="Wire3VtoSwitch" d="M 36 136 L 20 136 L 20 180 L 100 180 L 100 116" stroke="red" fill="none"/>

  <g id="R10k" transform="translate(105 147)">
    <rect x="0" y="0" width="20" height="10" fill="navajowhite" />
    <line x1="5" y1="0" x2="5" y2="10" stroke="brown" />
    <line x1="9" y1="0" x2="9" y2="10" stroke="black" />
    <line x1="13" y1="0" x2="13" y2="10" stroke="orange" />
    <line x1="17" y1="0" x2="17" y2="10" stroke="gold" />
  </g>

  <line id="Wire5toSwitch" x1="90" y1="104" x2="100" y2="104" stroke="orange" />

  <path id="WireSwitchToR10k" d="M 124 104 L 130 104 L 130 152 L 125 152" stroke="orange" fill="none"/>
  <line id="WireGtoR10k" x1="90" y1="152" x2="105" y2="152" stroke="black" />
</svg>
